<svg width="780" height="122" viewBox="0 0 780 122" fill="none" xmlns="http://www.w3.org/2000/svg">
<path d="M773.419 117.628H767.303L766.291 120.554H763.057L768.579 105.176H772.165L777.687 120.554H774.431L773.419 117.628ZM772.583 115.164L770.361 108.74L768.139 115.164H772.583Z" fill="#1D4641"/>
<path d="M753.48 105.198V120.554H750.4V105.198H753.48Z" fill="#1D4641"/>
<path d="M736.588 117.628H730.472L729.46 120.554H726.226L731.748 105.176H735.334L740.856 120.554H737.6L736.588 117.628ZM735.752 115.164L733.53 108.74L731.308 115.164H735.752Z" fill="#1D4641"/>
<path d="M713.497 109.818C713.145 109.173 712.661 108.681 712.045 108.344C711.429 108.007 710.71 107.838 709.889 107.838C708.98 107.838 708.173 108.043 707.469 108.454C706.765 108.865 706.215 109.451 705.819 110.214C705.423 110.977 705.225 111.857 705.225 112.854C705.225 113.881 705.423 114.775 705.819 115.538C706.23 116.301 706.794 116.887 707.513 117.298C708.232 117.709 709.068 117.914 710.021 117.914C711.194 117.914 712.155 117.606 712.903 116.99C713.651 116.359 714.142 115.487 714.377 114.372H709.097V112.018H717.413V114.702C717.208 115.773 716.768 116.763 716.093 117.672C715.418 118.581 714.546 119.315 713.475 119.872C712.419 120.415 711.231 120.686 709.911 120.686C708.43 120.686 707.088 120.356 705.885 119.696C704.697 119.021 703.758 118.09 703.069 116.902C702.394 115.714 702.057 114.365 702.057 112.854C702.057 111.343 702.394 109.994 703.069 108.806C703.758 107.603 704.697 106.672 705.885 106.012C707.088 105.337 708.422 105 709.889 105C711.62 105 713.123 105.425 714.399 106.276C715.675 107.112 716.555 108.293 717.039 109.818H713.497Z" fill="#1D4641"/>
<path d="M680.827 105.198L675.635 115.208V120.554H672.555V115.208L667.341 105.198H670.817L674.117 112.216L677.395 105.198H680.827Z" fill="#1D4641"/>
<path d="M655.712 112.678C656.577 112.839 657.289 113.272 657.846 113.976C658.403 114.68 658.682 115.487 658.682 116.396C658.682 117.217 658.477 117.943 658.066 118.574C657.67 119.19 657.091 119.674 656.328 120.026C655.565 120.378 654.663 120.554 653.622 120.554H647V105.198H653.336C654.377 105.198 655.272 105.367 656.02 105.704C656.783 106.041 657.355 106.511 657.736 107.112C658.132 107.713 658.33 108.395 658.33 109.158C658.33 110.053 658.088 110.801 657.604 111.402C657.135 112.003 656.504 112.429 655.712 112.678ZM650.08 111.534H652.896C653.629 111.534 654.194 111.373 654.59 111.05C654.986 110.713 655.184 110.236 655.184 109.62C655.184 109.004 654.986 108.527 654.59 108.19C654.194 107.853 653.629 107.684 652.896 107.684H650.08V111.534ZM653.182 118.046C653.93 118.046 654.509 117.87 654.92 117.518C655.345 117.166 655.558 116.667 655.558 116.022C655.558 115.362 655.338 114.849 654.898 114.482C654.458 114.101 653.864 113.91 653.116 113.91H650.08V118.046H653.182Z" fill="#1D4641"/>
<path d="M323.734 23.2705C329.282 23.2705 334.233 24.4639 338.587 26.8506C343.011 29.2372 346.417 32.6412 348.805 37.0635C351.263 41.4157 352.491 46.4352 352.491 52.1211C352.491 54.2268 352.351 56.122 352.07 57.8066H309.409C309.76 62.0185 311.235 65.3184 313.833 67.7051C316.431 70.0916 319.626 71.2851 323.418 71.2852C328.895 71.2852 332.793 68.9334 335.11 64.2305H351.017C349.331 69.8461 346.1 74.4787 341.325 78.1289C336.55 81.7089 330.686 83.499 323.734 83.499C318.117 83.499 313.061 82.2703 308.566 79.8135C304.142 77.2864 300.666 73.7415 298.138 69.1787C295.68 64.616 294.451 59.3514 294.451 53.3848C294.451 47.3479 295.68 42.0481 298.138 37.4854C300.596 32.9226 304.037 29.412 308.461 26.9551C312.885 24.4983 317.976 23.2705 323.734 23.2705ZM427.437 23.2705C431.79 23.2706 435.582 24.1475 438.812 25.9023C442.113 27.6573 444.747 29.8687 446.713 32.5361V24.2178H461.565V82.5518H446.713V74.0225C444.817 76.7601 442.183 79.0421 438.812 80.8672C435.512 82.622 431.685 83.499 427.331 83.499C422.415 83.499 417.921 82.236 413.848 79.709C409.845 77.1819 406.649 73.636 404.262 69.0732C401.945 64.4404 400.786 59.1403 400.786 53.1738C400.786 47.2776 401.944 42.048 404.262 37.4854C406.649 32.9226 409.845 29.412 413.848 26.9551C417.921 24.4982 422.451 23.2705 427.437 23.2705ZM525.299 23.2705C532.251 23.2705 537.798 25.0254 541.941 28.5352C546.085 31.9748 548.368 36.6426 548.789 42.5391H534.674C534.463 40.2226 533.48 38.3972 531.725 37.0635C530.039 35.6596 527.757 34.9581 524.878 34.958C522.21 34.958 520.138 35.4491 518.663 36.4316C517.259 37.4144 516.556 38.7841 516.556 40.5391C516.556 42.5043 517.539 44.0135 519.505 45.0664C521.471 46.0492 524.527 47.0672 528.67 48.1201C532.883 49.173 536.359 50.2607 539.098 51.3838C541.836 52.5069 544.189 54.2619 546.155 56.6484C548.192 58.9649 549.245 62.0542 549.315 65.915C549.315 69.2844 548.368 72.3033 546.472 74.9707C544.646 77.6381 541.977 79.7438 538.466 81.2881C535.025 82.7622 530.987 83.499 526.353 83.499C521.577 83.499 517.293 82.6564 513.501 80.9717C509.709 79.2168 506.689 76.8652 504.442 73.917C502.266 70.9688 501.072 67.7049 500.861 64.125H515.713C515.994 66.3711 517.083 68.231 518.979 69.7051C520.945 71.1792 523.368 71.917 526.247 71.917C529.056 71.917 531.232 71.3546 532.777 70.2314C534.392 69.1083 535.2 67.6699 535.2 65.915C535.2 64.0197 534.217 62.6157 532.251 61.7031C530.355 60.7204 527.3 59.6671 523.087 58.5439C518.733 57.491 515.152 56.4034 512.343 55.2803C509.604 54.1571 507.216 52.4366 505.18 50.1201C503.214 47.8036 502.23 44.6799 502.23 40.749C502.23 37.5201 503.143 34.5717 504.969 31.9043C506.865 29.2368 509.534 27.1312 512.975 25.5869C516.486 24.0426 520.594 23.2705 525.299 23.2705ZM749.574 23.2705C755.122 23.2705 760.073 24.4639 764.427 26.8506C768.85 29.2372 772.256 32.6415 774.644 37.0635C777.101 41.4157 778.331 46.4352 778.331 52.1211C778.331 54.2268 778.19 56.122 777.909 57.8066H735.248C735.599 62.0184 737.074 65.3184 739.672 67.7051C742.27 70.0918 745.466 71.2851 749.258 71.2852C754.735 71.2852 758.633 68.9335 760.95 64.2305H776.856C775.171 69.8461 771.94 74.4787 767.165 78.1289C762.39 81.7089 756.526 83.499 749.574 83.499C743.956 83.499 738.9 82.2704 734.405 79.8135C729.981 77.2864 726.506 73.7414 723.978 69.1787C721.52 64.616 720.291 59.3514 720.291 53.3848C720.291 47.3479 721.52 42.0481 723.978 37.4854C726.435 32.9226 729.876 29.412 734.3 26.9551C738.724 24.4982 743.816 23.2705 749.574 23.2705ZM174.445 56.333C174.445 60.9659 175.604 64.5462 177.921 67.0732C180.238 69.5301 183.399 70.7587 187.401 70.7588C191.474 70.7588 194.67 69.5301 196.987 67.0732C199.305 64.5462 200.463 60.9659 200.463 56.333V24.2178H215.315V82.5518H200.463V75.1807C198.567 77.7077 196.074 79.7085 192.984 81.1826C189.965 82.5865 186.664 83.2881 183.083 83.2881C178.518 83.2881 174.48 82.3406 170.969 80.4453C167.458 78.4799 164.684 75.6372 162.647 71.917C160.681 68.1264 159.698 63.633 159.698 58.4385V24.2178H174.445V56.333ZM490.083 82.5518H475.336V4.63281H490.083V82.5518ZM647.719 82.5518H632.972V24.2178H647.719V82.5518ZM685.989 68.9688L700.736 24.2178H716.432L694.838 82.5518H676.931L655.442 24.2178H671.242L685.989 68.9688ZM150.399 20.9531H119.747V39.8008H143.237V51.4893H119.747V82.5508H105V9.05469H150.399V20.9531ZM261.572 23.375C268.524 23.375 274.142 25.5864 278.426 30.0088C282.709 34.361 284.852 40.4681 284.852 48.3301V82.5508H270.104V50.3311C270.104 45.6981 268.945 42.1532 266.628 39.6963C264.311 37.1693 261.151 35.9054 257.148 35.9053C253.075 35.9053 249.845 37.1692 247.457 39.6963C245.14 42.1532 243.981 45.6982 243.981 50.3311V82.5508H229.234V24.2178H243.981V31.4824C245.948 28.9556 248.441 26.9898 251.46 25.5859C254.55 24.1119 257.921 23.375 261.572 23.375ZM395.277 38.8535H391.38C386.745 38.8535 383.234 39.9421 380.847 42.1182C378.529 44.2942 377.37 48.0843 377.37 53.4893V82.5508H362.623V24.2178H377.37V33.2725C379.266 30.1841 381.724 27.7626 384.743 26.0078C387.833 24.2529 391.345 23.375 395.277 23.375V38.8535ZM600.004 70.8633H624.231V82.5508H585.257V9.05469H600.004V70.8633ZM431.229 36.2217C428.49 36.2217 425.961 36.8879 423.644 38.2217C421.326 39.5554 419.431 41.5219 417.956 44.1191C416.552 46.6461 415.85 49.6642 415.85 53.1738C415.85 56.6837 416.552 59.7729 417.956 62.4404C419.431 65.0375 421.326 67.0385 423.644 68.4424C426.031 69.8463 428.56 70.5479 431.229 70.5479C433.967 70.5478 436.53 69.8806 438.918 68.5469C441.305 67.143 443.201 65.1774 444.605 62.6504C446.01 60.0531 446.713 56.9647 446.713 53.3848C446.713 49.8047 446.01 46.7507 444.605 44.2236C443.201 41.6266 441.305 39.6608 438.918 38.3271C436.53 36.9233 433.967 36.2217 431.229 36.2217ZM323.313 35.3789C319.662 35.3789 316.572 36.5027 314.044 38.749C311.586 40.9251 310.075 43.9782 309.514 47.9092H337.218C337.148 44.1186 335.778 41.0998 333.109 38.8535C330.441 36.5372 327.176 35.379 323.313 35.3789ZM749.152 35.3789C745.501 35.379 742.411 36.5028 739.883 38.749C737.425 40.9251 735.915 43.9784 735.354 47.9092H763.057C762.986 44.1186 761.618 41.0998 758.949 38.8535C756.281 36.537 753.015 35.3789 749.152 35.3789ZM640.45 0C643.048 0 645.191 0.841814 646.876 2.52637C648.632 4.14085 649.51 6.17698 649.51 8.63379C649.51 11.0907 648.632 13.162 646.876 14.8467C645.191 16.4611 643.048 17.2686 640.45 17.2686C637.852 17.2685 635.675 16.461 633.92 14.8467C632.235 13.162 631.392 11.0907 631.392 8.63379C631.392 6.17698 632.235 4.14085 633.92 2.52637C635.675 0.841942 637.852 6.10002e-05 640.45 0Z" fill="#8B104E"/>
<circle cx="45" cy="44" r="44" fill="#8B104E"/>
<path fill-rule="evenodd" clip-rule="evenodd" d="M61.6162 71.82C64.3818 70.7883 66.774 71.1447 68.792 72.8884C68.8152 72.9094 68.8312 72.9376 68.8369 72.9684C68.8425 72.9993 68.8375 73.0314 68.8232 73.0593C68.8089 73.087 68.786 73.1093 68.7578 73.1227C68.7293 73.1362 68.6968 73.1401 68.666 73.1335C63.7051 71.9914 61.4621 75.4696 56.7988 76.5261C53.566 77.257 49.7834 77.3136 47.1513 75.4577C47.0966 75.4212 47.0563 75.3669 47.0361 75.3044C47.016 75.2419 47.0169 75.1744 47.04 75.113C47.0632 75.0514 47.1074 74.9993 47.164 74.9655C47.2204 74.9319 47.2864 74.9179 47.3515 74.9265C52.0777 75.4518 56.7184 73.6417 61.6162 71.82ZM34.9873 65.0876C39.7516 65.3579 44.6821 65.4455 49.7783 65.3503C56.2497 65.2304 62.6986 65.1042 68.1972 68.3649C68.9677 68.8218 69.5341 69.3689 69.8965 70.0046C69.91 70.0312 69.9152 70.0617 69.9111 70.0915C69.907 70.1214 69.8933 70.149 69.873 70.1706C69.8527 70.1921 69.8264 70.2066 69.7978 70.2116C69.769 70.2165 69.7389 70.2117 69.7129 70.1979C68.2558 69.4443 66.6633 69.1062 64.9355 69.1823C54.9623 69.6449 43.8443 70.941 34.8896 65.3903C34.86 65.3703 34.8379 65.341 34.8261 65.3073C34.8144 65.2735 34.8142 65.2359 34.8252 65.2018C34.8362 65.168 34.8576 65.1385 34.8867 65.1179C34.9159 65.0971 34.9514 65.0867 34.9873 65.0876ZM23.4785 46.4089C23.5174 46.4137 23.5528 46.4338 23.5771 46.4645C24.6681 47.5229 25.5462 48.3914 26.2099 49.069C27.6708 50.5689 29.7342 52.0784 32.4004 53.5974C36.398 55.8778 41.0544 57.4108 46.3681 58.195C51.7806 58.9982 56.1309 59.7041 59.4189 60.3132C64.4084 61.2383 69.667 63.1632 71.9443 68.0915C71.9662 68.1278 71.973 68.1714 71.9629 68.2126C71.9526 68.2536 71.9268 68.2893 71.8906 68.3112C71.8726 68.3221 71.8519 68.3295 71.831 68.3327C71.8103 68.3358 71.7889 68.3348 71.7685 68.3298C71.7273 68.3196 71.6919 68.2928 71.6699 68.2565C68.1852 63.6939 61.5247 62.9171 56.1748 62.7458C48.0098 62.4774 40.1538 61.3293 33.2304 57.0749C29.1757 54.5889 25.8794 51.1137 23.3427 46.6481C23.3185 46.6171 23.3076 46.5769 23.3125 46.5378C23.3174 46.4988 23.3381 46.4633 23.3691 46.4392C23.4002 46.4151 23.4394 46.4041 23.4785 46.4089ZM19.8945 34.4811C19.9378 34.481 19.9795 34.4963 20.0127 34.5241C28.5154 42.4847 38.3514 48.1459 49.5205 51.5075C52.9307 52.5354 59.8485 53.8658 65.0439 56.1501C67.9468 57.4255 70.3935 59.5024 72.3847 62.3806C73.0713 63.3741 73.5658 64.552 73.8672 65.9147C73.8808 65.9832 73.8694 66.0551 73.8349 66.1159C73.8005 66.1765 73.7454 66.2232 73.6797 66.2468C73.6138 66.2703 73.5409 66.269 73.4756 66.2438C73.4104 66.2187 73.3561 66.1706 73.3232 66.1091C70.8857 61.3125 66.463 59.131 61.3593 58.0231C55.6413 56.782 51.4999 55.8744 48.9365 55.2995C47.9221 55.0711 47.1174 54.8825 46.5224 54.7341C45.6224 54.5133 44.8404 54.2752 44.1767 54.0202C33.9956 50.1294 25.8492 43.708 19.7382 34.7575C19.7161 34.7205 19.7079 34.677 19.7148 34.6345C19.7218 34.5918 19.7434 34.5532 19.7763 34.5251C19.8093 34.497 19.8512 34.4813 19.8945 34.4811ZM17.8095 11.027C17.8527 11.052 17.8853 11.0922 17.9013 11.1393C19.9669 17.2496 23.9269 21.967 28.6474 26.2214C35.9713 32.817 44.1766 38.79 53.1025 43.1813C61.9714 47.5442 72.7051 52.0564 75.5088 62.5524C75.6001 62.8945 75.6257 63.1569 75.584 63.3395C75.5734 63.3828 75.5489 63.422 75.5156 63.4518C75.4823 63.4817 75.4412 63.5009 75.3974 63.5065C75.3538 63.5121 75.3098 63.5046 75.2715 63.4841C75.233 63.4634 75.2016 63.4307 75.1826 63.3913C73.3554 59.828 70.7158 56.9596 67.2636 54.7858C62.3199 51.6735 56.8442 50.0798 52.3925 48.2067C41.2275 43.5127 31.943 36.5078 24.539 27.1921C20.9 22.6179 17.9988 17.2155 17.5009 11.2194C17.4976 11.1697 17.5126 11.1204 17.5429 11.0808C17.5733 11.0411 17.617 11.0134 17.666 11.0036C17.7149 10.9939 17.7663 11.0022 17.8095 11.027Z" fill="white"/>
</svg>
