<svg width="64" height="64" viewBox="0 0 64 64" fill="none" xmlns="http://www.w3.org/2000/svg">
<circle cx="32" cy="32" r="32" fill="#8B104E"/>
<path fill-rule="evenodd" clip-rule="evenodd" d="M44.0843 52.2325C46.0956 51.4821 47.8355 51.7417 49.3031 53.0098C49.3199 53.025 49.3311 53.0452 49.3353 53.0674C49.3394 53.0899 49.3368 53.1135 49.3265 53.1339C49.3161 53.1542 49.2984 53.1709 49.2777 53.1807C49.2571 53.1904 49.2335 53.1933 49.2113 53.1885C45.6036 52.3581 43.9726 54.8869 40.5814 55.6553C38.2302 56.1869 35.479 56.2278 33.5648 54.878C33.525 54.8515 33.4955 54.8121 33.4808 54.7667C33.4662 54.7213 33.467 54.6726 33.4837 54.628C33.5006 54.5832 33.5324 54.5452 33.5736 54.5206C33.6147 54.496 33.6628 54.486 33.7103 54.4922C37.1475 54.8743 40.5223 53.5573 44.0843 52.2325ZM24.7181 47.336C28.183 47.5326 31.7686 47.5966 35.4749 47.5274C40.1814 47.4402 44.8714 47.3484 48.8704 49.7198C49.4308 50.052 49.8432 50.4498 50.1068 50.9122C50.1167 50.9316 50.1195 50.9539 50.1165 50.9756C50.1135 50.9975 50.104 51.0175 50.0892 51.0333C50.0744 51.049 50.0554 51.06 50.0345 51.0635C50.0136 51.0671 49.9919 51.0637 49.973 51.0538C48.9132 50.5056 47.7551 50.2591 46.4984 50.3145C39.2451 50.6509 31.1593 51.5936 24.6468 47.5567C24.6253 47.5421 24.6094 47.5207 24.6009 47.4962C24.5924 47.4716 24.592 47.4448 24.5999 47.42C24.6079 47.3952 24.6236 47.3735 24.6449 47.3585C24.6661 47.3434 24.692 47.3353 24.7181 47.336ZM16.348 33.752C16.3765 33.7555 16.4026 33.7705 16.4202 33.793C17.2136 34.5626 17.8516 35.1938 18.3343 35.6866C19.3968 36.7775 20.8981 37.8758 22.8372 38.9805C25.7445 40.6388 29.1303 41.753 32.9945 42.3233C36.931 42.9075 40.0953 43.4213 42.4867 43.8643C46.1153 44.5371 49.9398 45.9365 51.596 49.5206C51.612 49.547 51.6171 49.5794 51.6097 49.6094C51.6022 49.6391 51.5832 49.6648 51.557 49.6807C51.5439 49.6886 51.529 49.694 51.514 49.6964C51.4988 49.6986 51.483 49.6981 51.4681 49.6944C51.4381 49.687 51.4118 49.668 51.3958 49.6417C48.8616 46.3233 44.0182 45.7584 40.1273 45.6339C34.189 45.4386 28.475 44.603 23.4398 41.5089C20.4911 39.7009 18.0941 37.1734 16.2493 33.9258C16.2317 33.9033 16.2234 33.8742 16.2269 33.8458C16.2304 33.8175 16.2455 33.7921 16.2679 33.7745C16.2905 33.7568 16.3195 33.7485 16.348 33.752ZM13.7415 25.0772C13.773 25.0771 13.8034 25.0883 13.8275 25.1085C20.0112 30.8979 27.1645 35.0152 35.2874 37.46C37.7676 38.2076 42.799 39.1748 46.5775 40.836C48.6886 41.7635 50.4682 43.2742 51.9163 45.3672C52.4157 46.0899 52.7753 46.9473 52.9945 47.9385C53.0043 47.9882 52.996 48.0399 52.971 48.084C52.946 48.1282 52.9056 48.1616 52.8577 48.1788C52.8098 48.1959 52.7568 48.1961 52.7093 48.1778C52.6619 48.1595 52.6229 48.1239 52.599 48.0792C50.8262 44.5907 47.6095 43.004 43.8978 42.1983C39.7395 41.2957 36.7279 40.6359 34.8636 40.2178C34.1257 40.0517 33.5396 39.9147 33.1068 39.8067C32.4522 39.6461 31.8834 39.4727 31.4007 39.2872C23.9964 36.4575 18.0716 31.7877 13.6273 25.2784C13.6112 25.2515 13.6056 25.2195 13.6107 25.1885C13.6158 25.1576 13.6317 25.1298 13.6556 25.1094C13.6796 25.089 13.71 25.0773 13.7415 25.0772ZM12.2249 8.01959C12.2564 8.0377 12.2796 8.06728 12.2913 8.10162C13.7936 12.5453 16.6738 15.9754 20.1068 19.0694C25.4333 23.8663 31.4012 28.2106 37.8929 31.4044C44.343 34.5774 52.1497 37.8588 54.1888 45.4922C54.2554 45.7414 54.273 45.9326 54.2425 46.0655C54.2348 46.0969 54.2179 46.1258 54.1937 46.1475C54.1696 46.1691 54.1394 46.1824 54.1077 46.1866C54.0759 46.1907 54.0429 46.185 54.015 46.17C53.9872 46.1549 53.9653 46.1311 53.9515 46.1026C52.6226 43.5111 50.7024 41.4248 48.1917 39.8438C44.5964 37.5804 40.6138 36.4218 37.3763 35.0596C29.2562 31.6457 22.5042 26.5506 17.1195 19.7755C14.4728 16.4488 12.3624 12.5201 12.0003 8.15924C11.9979 8.12321 12.0087 8.08737 12.0306 8.05865C12.0527 8.0299 12.0849 8.01014 12.1204 8.00299C12.1561 7.99587 12.1934 8.00148 12.2249 8.01959Z" fill="white"/>
</svg>
