<svg width="24" height="24" viewBox="0 0 24 24" fill="none" xmlns="http://www.w3.org/2000/svg">
<g clip-path="url(#clip0_2183_6255)">
<path d="M6.08577 23.9151C4.65848 23.8502 3.88314 23.6127 3.36743 23.4115C2.6841 23.1455 2.19693 22.8288 1.68407 22.3166C1.17122 21.8045 0.853806 21.3173 0.589176 20.634C0.388029 20.1183 0.150504 19.3429 0.0855946 17.9157C0.0142658 16.3728 0 15.9099 0 12.0011C0 8.09225 0.0156923 7.63004 0.0848813 6.08577C0.14979 4.65848 0.388742 3.88457 0.588463 3.36743C0.854519 2.6841 1.17193 2.19693 1.68336 1.68336C2.1955 1.17122 2.68268 0.853092 3.36672 0.588463C3.88243 0.387315 4.65777 0.14979 6.08506 0.0848813C7.62861 0.0142658 8.09225 0 11.9996 0C15.9085 0 16.3707 0.0156923 17.9149 0.0848813C19.3422 0.14979 20.1161 0.388742 20.6333 0.588463C21.3166 0.853092 21.8038 1.17122 22.3166 1.68336C22.8295 2.1955 23.1455 2.68339 23.4115 3.36672C23.6127 3.88243 23.8502 4.65777 23.9151 6.08506C23.9857 7.62933 24 8.09154 24 12.0004C24 15.9077 23.9857 16.3714 23.9151 17.9157C23.8502 19.3429 23.6113 20.1183 23.4115 20.634C23.1455 21.3173 22.8288 21.8045 22.3166 22.3166C21.8045 22.8288 21.3166 23.1455 20.6333 23.4115C20.1176 23.6127 19.3422 23.8502 17.9149 23.9151C16.3721 23.9857 15.9085 24 11.9996 24C8.09225 24 7.62862 23.9864 6.08577 23.9151Z" fill="#FFCCCF"/>
<path d="M12 24C18.6274 24 24 18.6274 24 12C24 5.37258 18.6274 0 12 0C5.37258 0 0 5.37258 0 12C0 18.6274 5.37258 24 12 24Z" fill="#FFCCCF"/>
<path d="M19 11.0001C18.924 10.9562 18.8378 10.9331 18.75 10.9331C18.6622 10.9331 18.576 10.9562 18.5 11.0001L12 14.6751L5.5 11.0001C5.42385 10.9561 5.33744 10.933 5.24951 10.9331C5.16157 10.9332 5.07521 10.9565 4.99914 11.0006C4.92307 11.0447 4.85999 11.1081 4.81624 11.1844C4.7725 11.2607 4.74965 11.3472 4.75 11.4351V15.7501C4.75 16.1479 4.90804 16.5295 5.18934 16.8108C5.47065 17.0921 5.85218 17.2501 6.25 17.2501H17.75C18.1478 17.2501 18.5294 17.0921 18.8107 16.8108C19.092 16.5295 19.25 16.1479 19.25 15.7501V11.4376C19.2508 11.3491 19.2281 11.2619 19.1841 11.185C19.1402 11.1082 19.0767 11.0444 19 11.0001Z" fill="#180026"/>
<path d="M17.75 6.75H6.25C5.85218 6.75 5.47065 6.90804 5.18934 7.18934C4.90804 7.47064 4.75 7.85218 4.75 8.25V9.1875C4.74965 9.27561 4.77259 9.36224 4.81649 9.43863C4.86039 9.51502 4.9237 9.57845 5 9.6225L11.75 13.435C11.826 13.4789 11.9122 13.502 12 13.502C12.0878 13.502 12.174 13.4789 12.25 13.435L19 9.6225C19.0763 9.57845 19.1396 9.51502 19.1835 9.43863C19.2274 9.36224 19.2504 9.27561 19.25 9.1875V8.25C19.25 7.85218 19.092 7.47064 18.8107 7.18934C18.5294 6.90804 18.1478 6.75 17.75 6.75Z" fill="#180026"/>
</g>
<defs>
<clipPath id="clip0_2183_6255">
<rect width="24" height="24" fill="white"/>
</clipPath>
</defs>
</svg>
