<svg width="24" height="24" viewBox="0 0 24 24" fill="none" xmlns="http://www.w3.org/2000/svg">
<g clip-path="url(#clip0_2183_6260)">
<path d="M6.08577 23.9151C4.65848 23.8502 3.88314 23.6127 3.36743 23.4115C2.6841 23.1455 2.19693 22.8288 1.68407 22.3166C1.17122 21.8045 0.853806 21.3173 0.589176 20.634C0.388029 20.1183 0.150504 19.3429 0.0855946 17.9157C0.0142658 16.3728 0 15.9099 0 12.0011C0 8.09225 0.0156923 7.63004 0.0848813 6.08577C0.14979 4.65848 0.388742 3.88457 0.588463 3.36743C0.854519 2.6841 1.17193 2.19693 1.68336 1.68336C2.1955 1.17122 2.68268 0.853092 3.36672 0.588463C3.88243 0.387315 4.65777 0.14979 6.08506 0.0848813C7.62861 0.0142658 8.09225 0 11.9996 0C15.9085 0 16.3707 0.0156923 17.9149 0.0848813C19.3422 0.14979 20.1161 0.388742 20.6333 0.588463C21.3166 0.853092 21.8038 1.17122 22.3166 1.68336C22.8295 2.1955 23.1455 2.68339 23.4115 3.36672C23.6127 3.88243 23.8502 4.65777 23.9151 6.08506C23.9857 7.62933 24 8.09154 24 12.0004C24 15.9077 23.9857 16.3714 23.9151 17.9157C23.8502 19.3429 23.6113 20.1183 23.4115 20.634C23.1455 21.3173 22.8288 21.8045 22.3166 22.3166C21.8045 22.8288 21.3166 23.1455 20.6333 23.4115C20.1176 23.6127 19.3422 23.8502 17.9149 23.9151C16.3721 23.9857 15.9085 24 11.9996 24C8.09225 24 7.62862 23.9864 6.08577 23.9151Z" fill="#FFCCCF"/>
<path d="M12 0.25C18.4893 0.25 23.75 5.51065 23.75 12C23.75 18.4893 18.4893 23.75 12 23.75C5.51065 23.75 0.25 18.4893 0.25 12C0.25 5.51065 5.51065 0.25 12 0.25Z" fill="#FFCCCF" stroke="#FFCCCF" stroke-width="0.5"/>
<path d="M16.272 6.768C16.0821 6.768 15.8965 6.8243 15.7387 6.92979C15.5808 7.03528 15.4577 7.18521 15.3851 7.36062C15.3124 7.53604 15.2934 7.72906 15.3304 7.91529C15.3675 8.10151 15.4589 8.27256 15.5932 8.40682C15.7274 8.54108 15.8985 8.63251 16.0847 8.66955C16.2709 8.7066 16.464 8.68758 16.6394 8.61492C16.8148 8.54226 16.9647 8.41922 17.0702 8.26135C17.1757 8.10348 17.232 7.91787 17.232 7.728C17.232 7.47339 17.1309 7.22921 16.9508 7.04918C16.7708 6.86914 16.5266 6.768 16.272 6.768ZM19.952 8.704C19.9364 8.04024 19.8121 7.38352 19.584 6.76C19.3806 6.22651 19.064 5.74342 18.656 5.344C18.2599 4.93394 17.7756 4.61934 17.24 4.424C16.6181 4.18893 15.9607 4.06177 15.296 4.048C14.448 4 14.176 4 12 4C9.824 4 9.552 4 8.704 4.048C8.03932 4.06177 7.38187 4.18893 6.76 4.424C6.22534 4.62132 5.74155 4.93565 5.344 5.344C4.93394 5.74014 4.61934 6.22435 4.424 6.76C4.18893 7.38187 4.06177 8.03932 4.048 8.704C4 9.552 4 9.824 4 12C4 14.176 4 14.448 4.048 15.296C4.06177 15.9607 4.18893 16.6181 4.424 17.24C4.61934 17.7756 4.93394 18.2599 5.344 18.656C5.74155 19.0644 6.22534 19.3787 6.76 19.576C7.38187 19.8111 8.03932 19.9382 8.704 19.952C9.552 20 9.824 20 12 20C14.176 20 14.448 20 15.296 19.952C15.9607 19.9382 16.6181 19.8111 17.24 19.576C17.7756 19.3807 18.2599 19.0661 18.656 18.656C19.0658 18.2581 19.3827 17.7746 19.584 17.24C19.8121 16.6165 19.9364 15.9598 19.952 15.296C19.952 14.448 20 14.176 20 12C20 9.824 20 9.552 19.952 8.704ZM18.512 15.2C18.5062 15.7078 18.4142 16.211 18.24 16.688C18.1123 17.0362 17.9071 17.3507 17.64 17.608C17.3805 17.8724 17.0666 18.0771 16.72 18.208C16.243 18.3822 15.7398 18.4742 15.232 18.48C14.432 18.52 14.136 18.528 12.032 18.528C9.928 18.528 9.632 18.528 8.832 18.48C8.30471 18.4899 7.77968 18.4087 7.28 18.24C6.94863 18.1025 6.64908 17.8982 6.4 17.64C6.13447 17.383 5.93187 17.0682 5.808 16.72C5.61269 16.2361 5.50435 15.7216 5.488 15.2C5.488 14.4 5.44 14.104 5.44 12C5.44 9.896 5.44 9.6 5.488 8.8C5.49159 8.28084 5.58636 7.76636 5.768 7.28C5.90884 6.94233 6.12501 6.64133 6.4 6.4C6.64305 6.12493 6.94343 5.90648 7.28 5.76C7.76764 5.58403 8.2816 5.49206 8.8 5.488C9.6 5.488 9.896 5.44 12 5.44C14.104 5.44 14.4 5.44 15.2 5.488C15.7078 5.49382 16.211 5.5858 16.688 5.76C17.0515 5.89492 17.3778 6.11428 17.64 6.4C17.9022 6.64574 18.107 6.94619 18.24 7.28C18.4178 7.76715 18.5098 8.28142 18.512 8.8C18.552 9.6 18.56 9.896 18.56 12C18.56 14.104 18.552 14.4 18.512 15.2ZM12 7.896C11.1886 7.89758 10.396 8.13962 9.72212 8.59153C9.04828 9.04345 8.5235 9.68496 8.21411 10.435C7.90471 11.185 7.82458 12.01 7.98384 12.8055C8.14309 13.6011 8.53459 14.3316 9.10886 14.9048C9.68313 15.4779 10.4144 15.868 11.2103 16.0257C12.0062 16.1834 12.8309 16.1017 13.5804 15.7908C14.3298 15.48 14.9703 14.954 15.4209 14.2792C15.8715 13.6045 16.112 12.8114 16.112 12C16.1131 11.4601 16.0074 10.9253 15.801 10.4264C15.5946 9.92744 15.2916 9.47425 14.9095 9.09284C14.5273 8.71143 14.0736 8.40934 13.5742 8.20394C13.0749 7.99854 12.5399 7.89389 12 7.896ZM12 14.664C11.4731 14.664 10.9581 14.5078 10.52 14.215C10.0819 13.9223 9.74042 13.5063 9.53878 13.0195C9.33715 12.5327 9.2844 11.997 9.38719 11.4803C9.48998 10.9635 9.7437 10.4888 10.1163 10.1163C10.4888 9.7437 10.9635 9.48998 11.4803 9.38719C11.997 9.2844 12.5327 9.33715 13.0195 9.53878C13.5063 9.74042 13.9223 10.0819 14.215 10.52C14.5078 10.9581 14.664 11.4731 14.664 12C14.664 12.3498 14.5951 12.6963 14.4612 13.0195C14.3273 13.3427 14.1311 13.6364 13.8837 13.8837C13.6364 14.1311 13.3427 14.3273 13.0195 14.4612C12.6963 14.5951 12.3498 14.664 12 14.664Z" fill="#180026"/>
</g>
<defs>
<clipPath id="clip0_2183_6260">
<rect width="24" height="24" fill="white"/>
</clipPath>
</defs>
</svg>
