<svg width="24" height="24" viewBox="0 0 24 24" fill="none" xmlns="http://www.w3.org/2000/svg">
<g clip-path="url(#clip0_2183_6264)">
<path d="M6.08577 23.9151C4.65848 23.8502 3.88314 23.6127 3.36743 23.4115C2.6841 23.1455 2.19693 22.8288 1.68407 22.3166C1.17122 21.8045 0.853806 21.3173 0.589176 20.634C0.388029 20.1183 0.150504 19.3429 0.0855946 17.9157C0.0142658 16.3728 0 15.9099 0 12.0011C0 8.09225 0.0156923 7.63004 0.0848813 6.08577C0.14979 4.65848 0.388742 3.88457 0.588463 3.36743C0.854519 2.6841 1.17193 2.19693 1.68336 1.68336C2.1955 1.17122 2.68268 0.853092 3.36672 0.588463C3.88243 0.387315 4.65777 0.14979 6.08506 0.0848813C7.62861 0.0142658 8.09225 0 11.9996 0C15.9085 0 16.3707 0.0156923 17.9149 0.0848813C19.3422 0.14979 20.1161 0.388742 20.6333 0.588463C21.3166 0.853092 21.8038 1.17122 22.3166 1.68336C22.8295 2.1955 23.1455 2.68339 23.4115 3.36672C23.6127 3.88243 23.8502 4.65777 23.9151 6.08506C23.9857 7.62933 24 8.09154 24 12.0004C24 15.9077 23.9857 16.3714 23.9151 17.9157C23.8502 19.3429 23.6113 20.1183 23.4115 20.634C23.1455 21.3173 22.8288 21.8045 22.3166 22.3166C21.8045 22.8288 21.3166 23.1455 20.6333 23.4115C20.1176 23.6127 19.3422 23.8502 17.9149 23.9151C16.3721 23.9857 15.9085 24 11.9996 24C8.09225 24 7.62862 23.9864 6.08577 23.9151Z" fill="#FFCCCF"/>
<path d="M12 0.25C18.4893 0.25 23.75 5.51067 23.75 12C23.75 18.4893 18.4893 23.75 12 23.75C5.51067 23.75 0.25 18.4893 0.25 12C0.25 5.51067 5.51067 0.25 12 0.25Z" fill="#FFCCCF" stroke="#FFCCCF" stroke-width="0.5"/>
<path fill-rule="evenodd" clip-rule="evenodd" d="M8.65901 7.41135C8.65901 8.1959 8.06846 8.82365 7.12021 8.82365H7.10281C6.18986 8.82365 5.59961 8.1959 5.59961 7.41135C5.59961 6.6102 6.20781 6 7.13811 6C8.06846 6 8.64136 6.6102 8.65901 7.41135ZM8.47986 9.9389V18.1098H5.76041V9.9389H8.47986ZM18.2872 18.1098L18.2873 13.4249C18.2873 10.9152 16.9457 9.74705 15.1562 9.74705C13.7123 9.74705 13.0659 10.5401 12.705 11.0964V9.93915H9.98516C10.021 10.7058 9.98516 18.11 9.98516 18.11H12.705V13.5467C12.705 13.3025 12.7226 13.0589 12.7945 12.8841C12.9911 12.3962 13.4386 11.8911 14.1899 11.8911C15.1743 11.8911 15.5679 12.6403 15.5679 13.7383V18.1098H18.2872Z" fill="#180026"/>
</g>
<defs>
<clipPath id="clip0_2183_6264">
<rect width="24" height="24" fill="white"/>
</clipPath>
</defs>
</svg>
