<svg width="24" height="24" viewBox="0 0 24 24" fill="none" xmlns="http://www.w3.org/2000/svg">
<path d="M7.84001 17.692C7.54547 16.981 7.88632 16.6395 8.59783 16.9303L10.2228 17.5954C10.9345 17.8864 11.1744 18.6541 10.7531 19.2975C10.7466 19.3075 9.26312 21.58 9.30486 21.4547C9.34669 21.324 7.85189 17.7207 7.84001 17.692ZM20.0754 4.14712C20.7568 3.79026 21.1493 4.10523 20.9474 4.84732L17.3683 18.0036C17.1657 18.7459 16.4031 19.0873 15.6896 18.7975L13.341 17.8415C12.6282 17.5516 11.459 17.0858 10.7414 16.8083L10.4933 16.7116C9.77573 16.4341 9.61994 15.7455 10.1467 15.1852L17.4152 7.40494C17.9401 6.84289 17.8761 6.77329 17.2717 7.24869L8.07634 14.4997C7.47009 14.9728 6.38729 15.1274 5.67204 14.8434L3.55486 14.0065C2.84025 13.7237 2.8118 13.1991 3.49333 12.8415L20.0754 4.14712Z" fill="white"/>
</svg>
